<?xml version="1.0" encoding="utf-8"?>
<!-- Svg Vector Icons : http://www.onlinewebfonts.com/icon -->
<!DOCTYPE svg PUBLIC "-//W3C//DTD SVG 1.1//EN" "http://www.w3.org/Graphics/SVG/1.1/DTD/svg11.dtd">
<svg version="1.1" xmlns="http://www.w3.org/2000/svg" xmlns:xlink="http://www.w3.org/1999/xlink" x="0px" y="0px" viewBox="0 0 1000 1000" enable-background="new 0 0 1000 1000" xml:space="preserve">
<metadata> Svg Vector Icons : http://www.onlinewebfonts.com/icon </metadata>
<g><g><path d="M301.9,445.3l-0.6,0c-2.9,12.2-5.9,27.7-9.2,39.6L280.4,528l44.2,0.5L312,484.7C308.4,472.6,304.9,457.4,301.9,445.3z"/><path d="M124.4,523.1l-13-0.1v52.9c3.7,0.7,8.2,0.9,14.8,1.1c17.6,0.6,33.4-6.2,33.4-26.4C159.5,531.2,143.7,523.3,124.4,523.1z"/><path d="M155.4,468.8c0-14.5-10.1-21.9-27.7-21.5c-8.3,0.2-13.1,0.9-16.3,1.5v43.7l12.5-0.1C144.2,492.5,155.4,483.1,155.4,468.8z"/><path d="M607.8,905.4c1.3,0.1,2.6,0.2,3.9,0.2h296.7c34.7,0,62.9-28.2,62.9-62.9V154.9c0-34.7-28.2-62.9-62.9-62.9H611.7c-1.3,0-2.6,0.1-3.9,0.2V10L28.7,87.3v823.4L607.8,990V905.4z M607.8,580.4c7.7,2.3,14.4,7.2,18.6,14.1c4.6,7.5,6,16.8,3.7,25.3c-0.2,0.8,0.1,1.7,0.8,2.1l20.1,14.7c1.1,0.8,1.8,0.4,2.3,0c3.8-2.4,8-4,12.5-4.7c4.3-0.7,8.5-0.5,12.7,0.5c8.6,2.1,16.1,7.6,20.5,15.2c0.4,0.7,1.2,1.1,2,1l24.6-3.9c0.8-0.1,1.5-0.8,1.7-1.5c1.9-8.6,7.3-16.2,14.8-20.8c7.3-4.5,16.3-5.9,24.6-3.9c-0.1-1,0-2.1,0.3-3.2c0.4-1.5,0.2-3.1-0.6-4.4c-0.8-1.3-2.1-2.2-3.6-2.5c-4.4-1-7.7-4.5-8.4-8.9l-1.8-11.7c-0.7-4.4,1.3-8.7,5.2-11c1.4-0.8,2.3-2.1,2.7-3.5c0.4-1.4,0.1-3-0.7-4.3c-2.4-3.8-2.2-8.7,0.4-12.3l7-9.5c1.8-2.4,4.3-3.9,7-4.4l1.9-0.3l2.3,0.5c1.8,0.5,3.3,0.2,4.5-0.6c1.3-0.8,2.2-2.1,2.5-3.6c0.9-4.2,4.1-7.2,8.2-8.1l-1.2-7.7c-0.1-0.8-0.8-1.5-1.6-1.7c-8.6-1.9-16.2-7.3-20.8-14.8c-4.6-7.5-6-16.8-3.7-25.3c0.2-0.8-0.1-1.7-0.8-2.1l-20.1-14.6c-1.1-0.8-1.8-0.4-2.3-0.1c-7.4,4.7-16.6,6.3-25.2,4.2c-8.6-2-16.1-7.6-20.5-15.3c-0.4-0.7-1.2-1.1-2-0.9l-24.6,3.9c-0.8,0.1-1.5,0.8-1.7,1.5c-1.9,8.6-7.3,16.2-14.8,20.8c-7.5,4.6-16.8,6-25.3,3.7c-0.5-0.1-1.3-0.3-2.1,0.8l-14.7,20.1c-0.5,0.7-0.5,1.6-0.1,2.3c4.8,7.4,6.3,16.6,4.3,25.2c-1.4,5.8-4.5,10.9-8.6,15.1V435.1h274.4v211.8c0,6-4.9,10.9-10.9,10.9H607.8V580.4z M690.6,502.8c26.4-4.1,51.2,14,55.4,40.3c4.1,26.4-13.9,51.2-40.3,55.4c-26.4,4.1-51.2-13.9-55.3-40.3C646.2,531.8,664.3,506.9,690.6,502.8z M611.7,127.9h296.7c14.9,0,27,12.1,27,27v687.8c0,14.9-12.1,27-27,27H611.7c-1.3,0-2.6-0.2-3.9-0.4V679.5h263.6c18,0,32.6-14.6,32.6-32.6V378.6c0-18-14.6-32.6-32.6-32.6H607.8V128.3C609.1,128.1,610.3,127.9,611.7,127.9z M183.2,594c-13,10.6-34.4,15.8-68.4,14.1c-18.6-0.9-32.2-3-40.4-4.8V422.2c9.7-2.6,29.5-5,48.4-5.8c23.7-1,38.5,1,51.3,8.8c12.5,6.8,21.6,19.8,21.6,37.5c0,17.4-9.4,33.7-29.5,41.7v0.6c20.4,6.1,35.8,23,35.8,48.3C202.1,571,194.5,584.7,183.2,594z M347.3,617.8l-16-54.1l-57.3-1.5l-13.8,51.3l-44.3-2.2l58.1-199.5l59.4-2.4L399,620.4L347.3,617.8z M496.5,625.3l-52.4-2.6V446.3l-59.2,1.4v-40.3l166.9-6.7v43.2l-55.4,1.3L496.5,625.3L496.5,625.3z"/><path d="M849.5,569.6c-4.1-0.9-7.7-3.5-9.9-7c-2.2-3.6-2.8-7.9-1.8-12c0.1-0.4-0.1-0.8-0.4-1l-9.5-6.9c-0.5-0.4-0.9-0.2-1.1,0c-3.5,2.2-7.9,3-11.9,2c-4.1-1-7.6-3.6-9.7-7.2c-0.2-0.3-0.6-0.5-0.9-0.5l-11.7,1.8c-0.4,0.1-0.7,0.4-0.8,0.7c-0.9,4.1-3.5,7.7-7,9.9c-3.6,2.2-8,2.8-12,1.8c-0.2-0.1-0.6-0.2-1,0.4l-6.9,9.5c-0.2,0.3-0.2,0.8,0,1.1c2.3,3.5,3,7.9,2,11.9c-1,4.1-3.6,7.6-7.2,9.7c-0.3,0.2-0.5,0.6-0.5,1l1.8,11.7c0,0.4,0.4,0.7,0.7,0.8c4.1,0.9,7.7,3.5,9.9,7c2.2,3.6,2.9,7.9,1.8,12c-0.1,0.4,0.1,0.8,0.4,1l9.5,6.9c0.6,0.4,0.8,0.2,1.1,0c1.8-1.1,3.8-1.9,5.9-2.2c2-0.3,4-0.2,6,0.2c4.1,1,7.6,3.6,9.7,7.2c0.2,0.3,0.6,0.5,1,0.4l11.6-1.8c0.4-0.1,0.7-0.4,0.8-0.7c0.9-4.1,3.5-7.7,7-9.9c3.6-2.2,8-2.8,12-1.8c0.3,0.1,0.6,0.2,1-0.4l6.9-9.6c0.2-0.3,0.2-0.7,0-1.1c-2.3-3.5-3-7.9-2-12c1-4.1,3.6-7.6,7.2-9.7c0.3-0.2,0.5-0.6,0.5-1l-1.8-11.7C850.1,570,849.8,569.7,849.5,569.6z M809.1,606.1c-12.5,2-24.2-6.6-26.2-19.1c-1.9-12.5,6.6-24.3,19.1-26.2c12.5-2,24.3,6.6,26.2,19.1C830.2,592.3,821.6,604.1,809.1,606.1z"/></g><g></g><g></g><g></g><g></g><g></g><g></g><g></g><g></g><g></g><g></g><g></g><g></g><g></g><g></g><g></g></g>
</svg>