<?xml version="1.0" encoding="utf-8"?>
<!-- Generator: Adobe Illustrator 24.0.0, SVG Export Plug-In . SVG Version: 6.00 Build 0)  -->
<svg version="1.1" id="Layer_1" xmlns="http://www.w3.org/2000/svg" xmlns:xlink="http://www.w3.org/1999/xlink" x="0px" y="0px"
	 viewBox="0 0 251.55 251.56" style="enable-background:new 0 0 251.55 251.56;" xml:space="preserve">
<style type="text/css">
	.st0{fill:none;stroke:#000000;stroke-width:2;stroke-miterlimit:10;}
	.st1{fill:none;stroke:#000000;stroke-miterlimit:10;}
	.st2{fill:none;stroke:#000000;stroke-width:1.5;stroke-miterlimit:10;}
	.st3{fill:none;stroke:#000000;stroke-width:0.5;stroke-miterlimit:10;}
	.st4{fill:none;stroke:#000000;stroke-width:0.4;stroke-miterlimit:10;}
	.st5{fill:#010202;}
	.st6{fill:#1F1B1B;}
	.st7{stroke:#000000;stroke-width:0.2;stroke-miterlimit:10;}
</style>
<g>
	<polyline class="st0" points="110.27,19.89 110.27,61.89 148.27,61.89 148.27,19.89 	"/>
	<g>
		<path class="st0" d="M122.4,48.62c0-5.13,3.08-9.29,6.87-9.29c3.8,0,6.87,4.16,6.87,9.29"/>
		<line class="st0" x1="122.4" y1="48.62" x2="122.4" y2="61.89"/>
		<line class="st0" x1="136.15" y1="48.62" x2="136.15" y2="61.89"/>
	</g>
	<g>
		<g>
			<g>
				<line class="st0" x1="110.27" y1="61.89" x2="110.27" y2="179.89"/>
				<line class="st0" x1="148.27" y1="61.89" x2="148.27" y2="179.89"/>
			</g>
			<line class="st0" x1="109.27" y1="61.89" x2="149.27" y2="61.89"/>
		</g>
		<g>
			<path class="st0" d="M117.51,160.15c0-7.63,5.27-13.82,11.76-13.82c6.5,0,11.76,6.19,11.76,13.82"/>
			<line class="st0" x1="117.51" y1="160.15" x2="117.51" y2="179.89"/>
			<line class="st0" x1="141.04" y1="160.15" x2="141.04" y2="179.89"/>
		</g>
		<line class="st0" x1="110.27" y1="178.88" x2="117.51" y2="178.88"/>
		<line class="st0" x1="141.04" y1="178.88" x2="148.27" y2="178.88"/>
	</g>
	<line class="st0" x1="109.32" y1="19.89" x2="112.72" y2="19.89"/>
	<line class="st0" x1="145.87" y1="20.3" x2="149.27" y2="20.3"/>
	<line class="st0" x1="112.72" y1="15.64" x2="117.25" y2="15.64"/>
	<line class="st0" x1="117.25" y1="11.43" x2="121.88" y2="11.43"/>
	<line class="st0" x1="121.88" y1="7.18" x2="126.51" y2="7.18"/>
	<line class="st0" x1="127.01" y1="2.89" x2="131.54" y2="2.89"/>
	<line class="st0" x1="141.34" y1="15.64" x2="145.87" y2="15.64"/>
	<line class="st0" x1="136.8" y1="11.43" x2="141.34" y2="11.43"/>
	<line class="st0" x1="132.27" y1="7.18" x2="136.8" y2="7.18"/>
	<rect x="118.39" y="74.34" class="st1" width="21.77" height="21.77"/>
	<circle class="st1" cx="129.27" cy="85.22" r="9.01"/>
	<circle class="st1" cx="129.27" cy="85.22" r="0.43"/>
	<line class="st1" x1="129.27" y1="85.22" x2="129.27" y2="79.14"/>
	<line class="st1" x1="129.27" y1="85.22" x2="135.77" y2="85.22"/>
	<path class="st2" d="M129.27,61.52v-12.9c0,0,1.94-10.22,3.81-7.73"/>
	<path class="st2" d="M129.27,61.52v-12.9c0,0-1.94-10.22-3.81-7.73"/>
	<line class="st3" x1="169.94" y1="150.22" x2="170.16" y2="150.22"/>
	<rect x="65.01" y="178.88" class="st0" width="127.67" height="68.67"/>
	<g>
		<line class="st0" x1="97.11" y1="247.54" x2="103.46" y2="232.77"/>
		<line class="st0" x1="92.28" y1="232.38" x2="165.41" y2="232.38"/>
		<line class="st0" x1="161.38" y1="247.54" x2="155.02" y2="232.77"/>
	</g>
	<line class="st1" x1="170.05" y1="178.88" x2="170.05" y2="191.22"/>
	<path class="st1" d="M177.44,198.72c0,4.14-3.36,7.5-7.5,7.5c-4.14,0-7.5-3.36-7.5-7.5c0-0.08,0-0.17,0.01-0.28
		c0.14-2.93,2.89-7.22,7.49-7.22C174.02,191.22,177.44,194.59,177.44,198.72z"/>
	<path class="st4" d="M162.43,198.96c0.76-0.59,3.7-1.03,7.08-1.07c3.8-0.04,7.37,0.42,8.17,1.1"/>
	<path class="st4" d="M162.43,197.86c0.76-0.59,3.7-1.03,7.08-1.07c3.8-0.04,7.37,0.42,8.17,1.1"/>
	<path class="st4" d="M162.77,196.76c0.73-0.59,3.53-1.03,6.76-1.07c3.62-0.04,7.03,0.42,7.8,1.1"/>
	<path class="st4" d="M163.47,195.66c0.66-0.59,3.19-1.03,6.11-1.07c3.28-0.04,6.36,0.42,7.05,1.1"/>
	<path class="st4" d="M163.92,194.74c0.6-0.59,2.92-1.03,5.59-1.07c3-0.04,5.82,0.42,6.45,1.1"/>
	<path class="st4" d="M164.88,193.64c0.51-0.59,2.45-1.03,4.7-1.07c2.52-0.04,4.89,0.42,5.42,1.1"/>
	<path class="st4" d="M162.31,200.06c0.76-0.59,3.7-1.03,7.08-1.07c3.8-0.04,7.37,0.42,8.17,1.1"/>
	<path class="st4" d="M163.03,201.15c0.7-0.59,3.4-1.03,6.52-1.07c3.5-0.04,6.78,0.42,7.52,1.1"/>
	<path class="st4" d="M163.31,202.25c0.68-0.59,3.27-1.03,6.26-1.07c3.36-0.04,6.52,0.42,7.22,1.1"/>
	<path class="st4" d="M163.92,203.35c0.59-0.59,2.85-1.03,5.45-1.07c2.92-0.04,5.67,0.42,6.29,1.1"/>
	<path class="st4" d="M164.68,204.36c0.51-0.59,2.48-1.03,4.74-1.07c2.54-0.04,4.93,0.42,5.47,1.1"/>
	<path class="st4" d="M166.55,205.46c0.35-0.59,1.7-1.03,3.25-1.07c1.74-0.04,3.38,0.42,3.75,1.1"/>
	<path class="st4" d="M169.59,191.33c-0.07,0.21-0.79,2.38-0.87,6.67c-0.06,3.19,0.26,6.33,0.82,8.12"/>
	<path class="st4" d="M167.96,191.33c-0.07,0.21-0.79,2.38-0.87,6.67c-0.06,3.19,0.26,6.33,0.82,8.12"/>
	<path class="st4" d="M166.55,192.11c-0.07,0.19-0.79,2.13-0.87,5.96c-0.06,2.86,0.26,5.66,0.82,7.26"/>
	<path class="st4" d="M165.12,193.42c-0.07,0.15-0.79,1.71-0.87,4.8c-0.06,2.3,0.26,4.56,0.82,5.85"/>
	<path class="st4" d="M170.52,191.35c0.07,0.21,0.79,2.38,0.87,6.67c0.06,3.19-0.26,6.33-0.82,8.12"/>
	<path class="st4" d="M171.96,191.35c0.07,0.21,0.79,2.38,0.87,6.67c0.06,3.19-0.26,6.33-0.82,8.12"/>
	<path class="st4" d="M173.55,192.31c0.07,0.18,0.79,2.06,0.87,5.78c0.06,2.77-0.26,5.49-0.82,7.04"/>
	<path class="st4" d="M174.89,193.48c0.07,0.16,0.79,1.77,0.87,4.97c0.06,2.38-0.26,4.72-0.82,6.05"/>
	<g>
		<path d="M71.07,200.78v-17.34c0-0.26,0.13-0.39,0.39-0.39h5.14c1.49,0,2.78,0.55,3.88,1.64c1.09,1.1,1.64,2.39,1.64,3.88
			c0,1.5-0.55,2.8-1.65,3.89c-1.1,1.1-2.4,1.64-3.89,1.64c-0.21,0-0.31-0.13-0.31-0.39v-0.7c0-0.26,0.05-0.39,0.17-0.39h0.14
			c1.11,0,2.06-0.4,2.84-1.21c0.81-0.78,1.22-1.73,1.22-2.84c0-1.1-0.4-2.05-1.21-2.83c-0.78-0.81-1.73-1.21-2.83-1.21h-3.66
			c-0.26,0-0.39,0.13-0.39,0.39v14.4c0,0.25,0.13,0.38,0.39,0.38h0.64c0.26,0,0.39-0.13,0.39-0.38v-9.28c0-0.25,0.12-0.38,0.37-0.38
			h2.23c0.31,0,0.58-0.1,0.78-0.3c0.21-0.2,0.31-0.46,0.31-0.78c0-0.31-0.1-0.57-0.31-0.78c-0.21-0.21-0.47-0.31-0.78-0.31h-2.23
			c-0.25,0-0.37-0.13-0.37-0.39v-0.78c0-0.26,0.13-0.38,0.38-0.35h2.24c0.68,0,1.29,0.27,1.82,0.8c0.54,0.54,0.8,1.14,0.8,1.81
			c0,0.69-0.27,1.3-0.8,1.84c-0.54,0.54-1.15,0.8-1.84,0.8h-0.72c-0.26,0-0.39,0.13-0.39,0.38v9.19c0,0.26-0.13,0.39-0.37,0.39
			h-3.62C71.2,201.17,71.07,201.04,71.07,200.78z"/>
		<path d="M83.41,200.78v-17.34c0-0.26,0.13-0.39,0.39-0.39h3.67c0.26,0,0.39,0.13,0.39,0.39v5.33c0,0.17-0.05,0.33-0.14,0.49
			l-0.88,1.66c-0.06,0.11-0.12,0.18-0.19,0.21c-0.07,0.03-0.13,0.02-0.19-0.04c-0.05-0.06-0.08-0.15-0.08-0.28v-5.88
			c0-0.26-0.13-0.39-0.4-0.39h-0.7c-0.26,0-0.4,0.13-0.4,0.39v14.33c0,0.26,0.13,0.39,0.4,0.39h0.7c0.26,0,0.4-0.13,0.4-0.39v-5.69
			c0-0.19,0.04-0.35,0.12-0.49l5.29-9.76c0.09-0.19,0.25-0.29,0.47-0.29h3.86c0.14,0,0.24,0.04,0.29,0.13
			c0.02,0.03,0.03,0.07,0.04,0.11c0,0.07-0.03,0.14-0.08,0.23l-6.03,11.14c-0.1,0.18-0.1,0.35,0,0.52l2.28,4.22
			c0.09,0.19,0.25,0.28,0.47,0.28h0.57c0.15,0,0.25-0.04,0.3-0.13s0.04-0.2-0.04-0.34l-2.46-4.52c-0.1-0.18-0.1-0.35,0-0.52
			l0.42-0.77c0.08-0.14,0.16-0.21,0.27-0.21c0.1,0,0.19,0.07,0.25,0.21l3.98,7.32c0.05,0.09,0.08,0.17,0.08,0.23
			c-0.01,0.04-0.02,0.08-0.04,0.11c-0.05,0.08-0.15,0.13-0.29,0.13H92.2c-0.22,0-0.37-0.1-0.47-0.29l-3.06-5.71
			c-0.1-0.17-0.1-0.34,0-0.52l5.23-9.63c0.08-0.14,0.09-0.26,0.04-0.34s-0.15-0.13-0.3-0.13h-0.57c-0.21,0-0.37,0.1-0.47,0.29
			l-4.63,8.57c-0.08,0.15-0.13,0.32-0.13,0.49v6.88c0,0.26-0.13,0.39-0.39,0.39h-3.67C83.53,201.17,83.41,201.04,83.41,200.78z"/>
	</g>
	<g>
		<path id="XMLID_1587_" class="st5" d="M104.46,231.42h1.16c0.29-0.29,0.26-0.71,0.26-0.71s0-4.25,0-4.57
			c0-0.32-0.22-1.36-0.44-1.79s-0.41-1.21-0.48-1.77c-0.07-0.57-0.1-1.61-0.1-1.76h-0.41h-0.41c0,0.15-0.03,1.19-0.1,1.76
			c-0.07,0.57-0.26,1.35-0.48,1.77c-0.22,0.42-0.44,1.47-0.44,1.79c0,0.32,0,4.57,0,4.57s-0.03,0.42,0.26,0.71H104.46z"/>
		<path id="XMLID_1586_" class="st5" d="M104.46,231.42h1.16c0.29-0.29,0.26-0.71,0.26-0.71s0-4.25,0-4.57
			c0-0.32-0.22-1.36-0.44-1.79s-0.41-1.21-0.48-1.77c-0.07-0.57-0.1-1.61-0.1-1.76h-0.41V231.42z"/>
		<path id="XMLID_1585_" class="st6" d="M104.73,220.88h-0.55c-0.12,0-0.22-0.1-0.22-0.22l0,0c0-0.12,0.1-0.22,0.22-0.22h0.55
			c0.12,0,0.22,0.1,0.22,0.22l0,0C104.96,220.78,104.86,220.88,104.73,220.88z"/>
		<path id="XMLID_1583_" class="st5" d="M104.46,222.78h0.53c-0.07-0.38-0.13-1.94-0.13-1.94h-0.41h-0.41c0,0-0.06,1.56-0.13,1.94
			H104.46z"/>
		<rect id="XMLID_1581_" x="103.03" y="226.14" class="st5" width="2.85" height="3.59"/>
	</g>
	<g>
		<path id="XMLID_5_" class="st5" d="M140.36,231.62h1.16c0.29-0.29,0.26-0.71,0.26-0.71s0-4.25,0-4.57c0-0.32-0.22-1.36-0.44-1.79
			c-0.22-0.42-0.41-1.21-0.48-1.77c-0.07-0.57-0.1-1.61-0.1-1.76h-0.41h-0.41c0,0.15-0.03,1.19-0.1,1.76
			c-0.07,0.57-0.26,1.35-0.48,1.77c-0.22,0.42-0.44,1.47-0.44,1.79c0,0.32,0,4.57,0,4.57s-0.03,0.42,0.26,0.71H140.36z"/>
		<path id="XMLID_4_" class="st5" d="M140.36,231.62h1.16c0.29-0.29,0.26-0.71,0.26-0.71s0-4.25,0-4.57c0-0.32-0.22-1.36-0.44-1.79
			c-0.22-0.42-0.41-1.21-0.48-1.77c-0.07-0.57-0.1-1.61-0.1-1.76h-0.41V231.62z"/>
		<path id="XMLID_3_" class="st6" d="M140.63,221.07h-0.55c-0.12,0-0.22-0.1-0.22-0.22l0,0c0-0.12,0.1-0.22,0.22-0.22h0.55
			c0.12,0,0.22,0.1,0.22,0.22l0,0C140.85,220.98,140.76,221.07,140.63,221.07z"/>
		<path id="XMLID_2_" class="st5" d="M140.36,222.98h0.53c-0.07-0.38-0.13-1.94-0.13-1.94h-0.41h-0.41c0,0-0.06,1.56-0.13,1.94
			H140.36z"/>
		<rect id="XMLID_1_" x="138.93" y="226.33" class="st5" width="2.85" height="3.59"/>
	</g>
	<g id="XMLID_1588_">
		<path id="XMLID_1594_" d="M159.73,231.47h0.66c0.13-0.08,0.1-0.38,0.08-0.45c-0.02-0.07-0.06-0.17-0.05-0.24s0.05-2.36,0.05-2.6
			s-0.22-0.42-0.25-0.6c-0.03-0.18-0.22-1.26-0.22-1.29c0-0.03,0.04-0.02,0.05-0.07c0.02-0.05-0.02-0.05-0.03-0.08
			c0-0.02,0.02-0.04,0.03-0.08c0-0.04-0.04-0.05-0.05-0.07h-0.26h-0.26c-0.01,0.02-0.06,0.03-0.05,0.07c0,0.04,0.03,0.06,0.03,0.08
			s-0.04,0.02-0.03,0.08c0.02,0.05,0.05,0.04,0.05,0.07c0,0.03-0.19,1.11-0.22,1.29c-0.03,0.18-0.25,0.36-0.25,0.6
			s0.05,2.52,0.05,2.6c0,0.08-0.03,0.17-0.05,0.24s-0.05,0.37,0.08,0.45H159.73z"/>
		<path id="XMLID_1593_" d="M159.73,231.47h0.66c0.13-0.08,0.1-0.38,0.08-0.45c-0.02-0.07-0.06-0.17-0.05-0.24s0.05-2.36,0.05-2.6
			s-0.22-0.42-0.25-0.6c-0.03-0.18-0.22-1.26-0.22-1.29c0-0.03,0.04-0.02,0.05-0.07c0.02-0.05-0.02-0.05-0.03-0.08
			c0-0.02,0.02-0.04,0.03-0.08c0-0.04-0.04-0.05-0.05-0.07h-0.26V231.47z"/>
		<polygon id="XMLID_1592_" points="159.47,226.31 160,226.31 160.19,227.42 159.28,227.42 		"/>
		<polygon id="XMLID_1591_" points="159.73,226.31 160,226.31 160.19,227.42 159.73,227.42 		"/>
		<polygon id="XMLID_1590_" points="159,228.52 160.46,228.52 160.43,230.22 159.04,230.22 		"/>
		<polygon id="XMLID_1589_" points="159.73,228.52 160.47,228.52 160.43,230.22 159.73,230.22 		"/>
	</g>
	<g id="XMLID_6_">
		<path id="XMLID_12_" d="M149.92,231.47h0.66c0.13-0.08,0.1-0.38,0.08-0.45s-0.06-0.17-0.05-0.24c0-0.08,0.05-2.36,0.05-2.6
			s-0.22-0.42-0.25-0.6c-0.03-0.18-0.22-1.26-0.22-1.29c0-0.03,0.04-0.02,0.05-0.07c0.02-0.05-0.02-0.05-0.03-0.08
			s0.02-0.04,0.03-0.08c0-0.04-0.04-0.05-0.05-0.07h-0.26h-0.26c-0.01,0.02-0.06,0.03-0.05,0.07c0,0.04,0.03,0.06,0.03,0.08
			c0,0.02-0.04,0.02-0.03,0.08c0.02,0.05,0.05,0.04,0.05,0.07c0,0.03-0.19,1.11-0.22,1.29c-0.03,0.18-0.25,0.36-0.25,0.6
			s0.05,2.52,0.05,2.6s-0.03,0.17-0.05,0.24c-0.02,0.07-0.05,0.37,0.08,0.45H149.92z"/>
		<path id="XMLID_11_" d="M149.92,231.47h0.66c0.13-0.08,0.1-0.38,0.08-0.45s-0.06-0.17-0.05-0.24c0-0.08,0.05-2.36,0.05-2.6
			s-0.22-0.42-0.25-0.6c-0.03-0.18-0.22-1.26-0.22-1.29c0-0.03,0.04-0.02,0.05-0.07c0.02-0.05-0.02-0.05-0.03-0.08
			s0.02-0.04,0.03-0.08c0-0.04-0.04-0.05-0.05-0.07h-0.26V231.47z"/>
		<polygon id="XMLID_10_" points="149.65,226.31 150.19,226.31 150.38,227.42 149.46,227.42 		"/>
		<polygon id="XMLID_9_" points="149.92,226.31 150.19,226.31 150.38,227.42 149.92,227.42 		"/>
		<polygon id="XMLID_8_" points="149.19,228.52 150.65,228.52 150.61,230.22 149.22,230.22 		"/>
		<polygon id="XMLID_7_" points="149.92,228.52 150.65,228.52 150.62,230.22 149.92,230.22 		"/>
	</g>
	<g id="XMLID_13_">
		<path id="XMLID_19_" d="M126.11,231.47h0.66c0.13-0.08,0.1-0.38,0.08-0.45s-0.06-0.17-0.05-0.24c0-0.08,0.05-2.36,0.05-2.6
			s-0.22-0.42-0.25-0.6c-0.03-0.18-0.22-1.26-0.22-1.29c0-0.03,0.04-0.02,0.05-0.07c0.02-0.05-0.02-0.05-0.03-0.08
			c0-0.02,0.02-0.04,0.03-0.08c0-0.04-0.04-0.05-0.05-0.07h-0.26h-0.26c-0.01,0.02-0.06,0.03-0.05,0.07c0,0.04,0.03,0.06,0.03,0.08
			c0,0.02-0.04,0.02-0.03,0.08c0.02,0.05,0.05,0.04,0.05,0.07c0,0.03-0.19,1.11-0.22,1.29c-0.03,0.18-0.25,0.36-0.25,0.6
			s0.05,2.52,0.05,2.6c0,0.08-0.03,0.17-0.05,0.24s-0.05,0.37,0.08,0.45H126.11z"/>
		<path id="XMLID_18_" d="M126.11,231.47h0.66c0.13-0.08,0.1-0.38,0.08-0.45s-0.06-0.17-0.05-0.24c0-0.08,0.05-2.36,0.05-2.6
			s-0.22-0.42-0.25-0.6c-0.03-0.18-0.22-1.26-0.22-1.29c0-0.03,0.04-0.02,0.05-0.07c0.02-0.05-0.02-0.05-0.03-0.08
			c0-0.02,0.02-0.04,0.03-0.08c0-0.04-0.04-0.05-0.05-0.07h-0.26V231.47z"/>
		<polygon id="XMLID_17_" points="125.84,226.31 126.37,226.31 126.56,227.42 125.65,227.42 		"/>
		<polygon id="XMLID_16_" points="126.11,226.31 126.37,226.31 126.56,227.42 126.11,227.42 		"/>
		<polygon id="XMLID_15_" points="125.38,228.52 126.84,228.52 126.8,230.22 125.41,230.22 		"/>
		<polygon id="XMLID_14_" points="126.11,228.52 126.84,228.52 126.8,230.22 126.11,230.22 		"/>
	</g>
	<path id="XMLID_1642_" class="st7" d="M109.6,229.25c0.33-0.15,0.52-0.49,0.58-0.98c0.05-0.49-0.25-1.56-0.25-1.56h-0.69h-0.69
		c0,0-0.3,1.06-0.25,1.56c0.05,0.49,0.24,0.83,0.58,0.98c0.33,0.15,0.3,1.05,0.27,1.4c-0.03,0.36-0.1,0.6-0.32,0.68
		c-0.22,0.08-0.43,0.11-0.45,0.15h0.86h0.87c-0.01-0.04-0.23-0.07-0.45-0.15c-0.22-0.08-0.29-0.32-0.32-0.68
		C109.31,230.29,109.27,229.4,109.6,229.25z"/>
	<path id="XMLID_20_" class="st7" d="M134.22,229.25c0.33-0.15,0.52-0.49,0.58-0.98c0.05-0.49-0.25-1.56-0.25-1.56h-0.69h-0.69
		c0,0-0.3,1.06-0.25,1.56s0.24,0.83,0.58,0.98c0.33,0.15,0.3,1.05,0.27,1.4s-0.1,0.6-0.32,0.68c-0.22,0.08-0.43,0.11-0.45,0.15h0.86
		h0.87c-0.01-0.04-0.23-0.07-0.45-0.15c-0.22-0.08-0.29-0.32-0.32-0.68C133.93,230.29,133.89,229.4,134.22,229.25z"/>
	<path id="XMLID_21_" class="st7" d="M121.39,229.25c0.33-0.15,0.52-0.49,0.58-0.98c0.05-0.49-0.25-1.56-0.25-1.56h-0.69h-0.69
		c0,0-0.3,1.06-0.25,1.56s0.24,0.83,0.58,0.98c0.33,0.15,0.3,1.05,0.27,1.4s-0.1,0.6-0.32,0.68c-0.22,0.08-0.43,0.11-0.45,0.15h0.86
		h0.87c-0.01-0.04-0.23-0.07-0.45-0.15c-0.22-0.08-0.29-0.32-0.32-0.68S121.06,229.4,121.39,229.25z"/>
</g>
</svg>
